<svg xmlns="http://www.w3.org/2000/svg" viewBox="0 0 960 540" role="img" aria-labelledby="title-06-g10-retract desc-06-g10-retract">
<title id="title-06-g10-retract">G10 · retract filament</title><desc id="desc-06-g10-retract">Pull material back, optionally lift Z, then travel cleanly.</desc>
<defs><marker id="blue" markerWidth="10" markerHeight="10" refX="8" refY="5" orient="auto"><path d="M0,0 L10,5 L0,10 z" fill="#1677ff"/></marker> <marker id="green" markerWidth="10" markerHeight="10" refX="8" refY="5" orient="auto"><path d="M0,0 L10,5 L0,10 z" fill="#19a974"/></marker> <marker id="orange" markerWidth="10" markerHeight="10" refX="8" refY="5" orient="auto"><path d="M0,0 L10,5 L0,10 z" fill="#f28c28"/></marker><filter id="shadow" x="-20%" y="-20%" width="140%" height="140%"><feDropShadow dx="0" dy="5" stdDeviation="8" flood-color="#172033" flood-opacity=".14"/></filter></defs>
<rect width="960" height="540" rx="28" fill="#f6f8fc"/><rect x="24" y="24" width="912" height="492" rx="20" fill="#fff" stroke="#d8e0ed"/>
<rect x="54" y="52" width="62" height="28" rx="14" fill="#e8f1ff"/><text x="85" y="71" text-anchor="middle" font-family="ui-monospace, SFMono-Regular, Menlo, monospace" font-size="13" font-weight="700" fill="#1769d1">06</text>
<text x="54" y="117" font-family="Inter, Arial, sans-serif" font-size="29" font-weight="750" fill="#10213f">G10 · retract filament</text>
<text x="54" y="147" font-family="Inter, Arial, sans-serif" font-size="16" fill="#4b5b73">Pull material back, optionally lift Z, then travel cleanly.</text>
<line x1="54" y1="170" x2="906" y2="170" stroke="#dce4ef"/>
<rect x="180" y="262" width="535" height="76" rx="38" fill="#e9edf4" stroke="#9daabd" stroke-width="3"/><circle cx="246" cy="300" r="31" fill="#f28c28"/><path d="M246 269 V331 M218 300 H274" stroke="#fff" stroke-width="5"/><path d="M309 300 H650" stroke="#d24b69" stroke-width="16" stroke-linecap="round"/><path d="M690 300 H245" stroke="#1677ff" stroke-width="7" marker-end="url(#blue)"/><text x="204" y="372" font-family="Inter, Arial, sans-serif" font-size="14" font-weight="650" fill="#51627c">drive gear</text><text x="627" y="372" font-family="Inter, Arial, sans-serif" font-size="14" font-weight="650" fill="#51627c">melt zone</text><rect x="395" y="211" width="109" height="30" rx="15" fill="#fff0f1"/><text x="409" y="232" font-family="ui-monospace, SFMono-Regular, Menlo, monospace" font-size="13" font-weight="700" fill="#b41f42">pull back</text><text x="382" y="443" font-family="ui-monospace, SFMono-Regular, Menlo, monospace" font-size="19" font-weight="700" fill="#1769d1">G10  retract</text>
</svg>