<svg xmlns="http://www.w3.org/2000/svg" viewBox="0 0 960 540" role="img" aria-labelledby="title-37-six-axis desc-37-six-axis">
<title id="title-37-six-axis">Six-axis motion · position plus orientation</title><desc id="desc-37-six-axis">Three linear and three rotary axes describe a tool pose.</desc>
<defs><marker id="blue" markerWidth="10" markerHeight="10" refX="8" refY="5" orient="auto"><path d="M0,0 L10,5 L0,10 z" fill="#1677ff"/></marker> <marker id="green" markerWidth="10" markerHeight="10" refX="8" refY="5" orient="auto"><path d="M0,0 L10,5 L0,10 z" fill="#19a974"/></marker> <marker id="orange" markerWidth="10" markerHeight="10" refX="8" refY="5" orient="auto"><path d="M0,0 L10,5 L0,10 z" fill="#f28c28"/></marker><filter id="shadow" x="-20%" y="-20%" width="140%" height="140%"><feDropShadow dx="0" dy="5" stdDeviation="8" flood-color="#172033" flood-opacity=".14"/></filter></defs>
<rect width="960" height="540" rx="28" fill="#f6f8fc"/><rect x="24" y="24" width="912" height="492" rx="20" fill="#fff" stroke="#d8e0ed"/>
<rect x="54" y="52" width="62" height="28" rx="14" fill="#e8f1ff"/><text x="85" y="71" text-anchor="middle" font-family="ui-monospace, SFMono-Regular, Menlo, monospace" font-size="13" font-weight="700" fill="#1769d1">37</text>
<text x="54" y="117" font-family="Inter, Arial, sans-serif" font-size="29" font-weight="750" fill="#10213f">Six-axis motion · position plus orientation</text>
<text x="54" y="147" font-family="Inter, Arial, sans-serif" font-size="16" fill="#4b5b73">Three linear and three rotary axes describe a tool pose.</text>
<line x1="54" y1="170" x2="906" y2="170" stroke="#dce4ef"/>
<circle cx="450" cy="325" r="68" fill="#e8f1ff" stroke="#1677ff" stroke-width="4"/><path d="M450 325 H720 M450 325 L255 408 M450 325 V153" stroke="#1677ff" stroke-width="7" marker-end="url(#blue)"/><path d="M630 220 A95 95 0 0 1 715 315 M280 272 A95 95 0 0 0 305 390 M395 188 A95 95 0 0 0 510 170" fill="none" stroke="#f28c28" stroke-width="6" marker-end="url(#orange)"/><rect x="675" y="326" width="109" height="30" rx="15" fill="#e8f1ff"/><text x="689" y="347" font-family="ui-monospace, SFMono-Regular, Menlo, monospace" font-size="13" font-weight="700" fill="#1769d1">X · Y · Z</text><rect x="604" y="163" width="109" height="30" rx="15" fill="#fff3df"/><text x="618" y="184" font-family="ui-monospace, SFMono-Regular, Menlo, monospace" font-size="13" font-weight="700" fill="#b7650f">A · B · C</text><text x="320" y="475" font-family="Inter, Arial, sans-serif" font-size="17" font-weight="650" fill="#51627c">tool pose = position + orientation</text>
</svg>