<svg xmlns="http://www.w3.org/2000/svg" viewBox="0 0 960 540" role="img" aria-labelledby="title-49-laser-control desc-49-laser-control">
<title id="title-49-laser-control">Laser control · power follows motion</title><desc id="desc-49-laser-control">The controller coordinates a motion segment with commanded power S.</desc>
<defs><marker id="blue" markerWidth="10" markerHeight="10" refX="8" refY="5" orient="auto"><path d="M0,0 L10,5 L0,10 z" fill="#1677ff"/></marker> <marker id="green" markerWidth="10" markerHeight="10" refX="8" refY="5" orient="auto"><path d="M0,0 L10,5 L0,10 z" fill="#19a974"/></marker> <marker id="orange" markerWidth="10" markerHeight="10" refX="8" refY="5" orient="auto"><path d="M0,0 L10,5 L0,10 z" fill="#f28c28"/></marker><filter id="shadow" x="-20%" y="-20%" width="140%" height="140%"><feDropShadow dx="0" dy="5" stdDeviation="8" flood-color="#172033" flood-opacity=".14"/></filter></defs>
<rect width="960" height="540" rx="28" fill="#f6f8fc"/><rect x="24" y="24" width="912" height="492" rx="20" fill="#fff" stroke="#d8e0ed"/>
<rect x="54" y="52" width="62" height="28" rx="14" fill="#e8f1ff"/><text x="85" y="71" text-anchor="middle" font-family="ui-monospace, SFMono-Regular, Menlo, monospace" font-size="13" font-weight="700" fill="#1769d1">49</text>
<text x="54" y="117" font-family="Inter, Arial, sans-serif" font-size="29" font-weight="750" fill="#10213f">Laser control · power follows motion</text>
<text x="54" y="147" font-family="Inter, Arial, sans-serif" font-size="16" fill="#4b5b73">The controller coordinates a motion segment with commanded power S.</text>
<line x1="54" y1="170" x2="906" y2="170" stroke="#dce4ef"/>
<path d="M160 390 H800" stroke="#27364f" stroke-width="20"/><rect x="360" y="258" width="170" height="76" rx="12" fill="#e8f1ff"/><path d="M445 334 V390" stroke="#d24b69" stroke-width="8" stroke-dasharray="7 5"/><path d="M325 390 H655" stroke="#19a974" stroke-width="7" marker-end="url(#green)"/><text x="456" y="435" font-family="Inter, Arial, sans-serif" font-size="17" font-weight="650" fill="#117e52">motion segment</text><text x="395" y="246" font-family="Inter, Arial, sans-serif" font-size="16" font-weight="650" fill="#1769d1">laser head</text><rect x="340" y="461" width="280" height="30" rx="15" fill="#fff0f1"/><text x="354" y="482" font-family="ui-monospace, SFMono-Regular, Menlo, monospace" font-size="13" font-weight="700" fill="#b41f42">S controls power during move</text>
</svg>